<?xml version="1.0" encoding="UTF-8" standalone="no"?>
<svg
   enable-background="new 0 0 24 24"
   height="48px"
   viewBox="0 0 24 24"
   width="48px"
   fill="#000000"
   version="1.1"
   id="svg20"
   sodipodi:docname="mic_black_48dp.svg"
   inkscape:version="1.1.1 (3bf5ae0d25, 2021-09-20)"
   xmlns:inkscape="http://www.inkscape.org/namespaces/inkscape"
   xmlns:sodipodi="http://sodipodi.sourceforge.net/DTD/sodipodi-0.dtd"
   xmlns="http://www.w3.org/2000/svg"
   xmlns:svg="http://www.w3.org/2000/svg">
  <defs
     id="defs24">
    <linearGradient
       id="linearGradient1137"
       inkscape:swatch="solid">
      <stop
         style="stop-color:#000000;stop-opacity:1;"
         offset="0"
         id="stop1135" />
    </linearGradient>
    <linearGradient
       id="linearGradient937"
       inkscape:swatch="gradient">
      <stop
         style="stop-color:#000000;stop-opacity:1;"
         offset="0"
         id="stop933" />
      <stop
         style="stop-color:#000000;stop-opacity:0;"
         offset="1"
         id="stop935" />
    </linearGradient>
  </defs>
  <sodipodi:namedview
     id="namedview22"
     pagecolor="#ffffff"
     bordercolor="#666666"
     borderopacity="1.0"
     inkscape:pageshadow="2"
     inkscape:pageopacity="0.0"
     inkscape:pagecheckerboard="0"
     showgrid="false"
     showguides="true"
     inkscape:guide-bbox="true"
     inkscape:zoom="8.9791667"
     inkscape:cx="20.603248"
     inkscape:cy="18.654292"
     inkscape:window-width="1920"
     inkscape:window-height="1051"
     inkscape:window-x="-9"
     inkscape:window-y="-9"
     inkscape:window-maximized="1"
     inkscape:current-layer="svg20">
    <sodipodi:guide
       position="12.083527,23.220418"
       orientation="1,0"
       id="guide3911" />
    <sodipodi:guide
       position="-14.422274,11.972158"
       orientation="0,-1"
       id="guide3913" />
  </sodipodi:namedview>
  <g
     id="g8">
    <rect
       fill="none"
       height="24"
       width="24"
       id="rect2" />
    <rect
       fill="none"
       height="24"
       width="24"
       id="rect4" />
    <rect
       fill="none"
       height="24"
       width="24"
       id="rect6" />
  </g>
  <ellipse
     style="fill:#4d4d4d;fill-opacity:1;fill-rule:nonzero;stroke:#4d4d4d;stroke-width:0.475566;stroke-miterlimit:4;stroke-dasharray:none;stroke-opacity:1"
     id="path1087"
     cx="12.084105"
     cy="11.916603"
     rx="11.762202"
     ry="11.762218"
     inkscape:label="path1087"
     transform="matrix(0.99997602,0.00692559,-0.0070335,0.99997526,0,0)" />
  <g
     id="g18"
     transform="matrix(0.5,0,0,0.5,6.083527,6.4645937)"
     style="fill:#ffffff">
    <g
       id="g10"
       style="fill:#ffffff" />
    <g
       id="g16"
       style="fill:#ffffff">
      <path
         d="m 12,14 c 1.66,0 3,-1.34 3,-3 V 5 C 15,3.34 13.66,2 12,2 10.34,2 9,3.34 9,5 v 6 c 0,1.66 1.34,3 3,3 z"
         id="path12"
         style="fill:#ffffff" />
      <path
         d="m 17,11 c 0,2.76 -2.24,5 -5,5 C 9.24,16 7,13.76 7,11 H 5 c 0,3.53 2.61,6.43 6,6.92 V 21 h 2 v -3.08 c 3.39,-0.49 6,-3.39 6,-6.92 z"
         id="path14"
         style="fill:#ffffff" />
    </g>
  </g>
</svg>
